<?xml version="1.0" encoding="UTF-8" standalone="no"?>
<svg
   version="1.1"
   width="286.29919pt"
   height="189.9213pt"
   id="svg12"
   viewBox="0 0 286.29919 189.9213"
   sodipodi:docname="incermet_logo.cdr"
   xmlns:inkscape="http://www.inkscape.org/namespaces/inkscape"
   xmlns:sodipodi="http://sodipodi.sourceforge.net/DTD/sodipodi-0.dtd"
   xmlns="http://www.w3.org/2000/svg"
   xmlns:svg="http://www.w3.org/2000/svg">
  <defs
     id="defs12" />
  <sodipodi:namedview
     id="namedview12"
     pagecolor="#ffffff"
     bordercolor="#000000"
     borderopacity="0.25"
     inkscape:showpageshadow="2"
     inkscape:pageopacity="0.0"
     inkscape:pagecheckerboard="0"
     inkscape:deskcolor="#d1d1d1"
     inkscape:document-units="pt" />
  <path
     d="m 145.8729,1.3911 c -42.7226,37.4257 82.5228,84.2382 -7.431,119.0871 53.1926,-32.119 -68.7047,-67.5827 7.431,-119.0871 z"
     style="fill:#9e090e;fill-rule:evenodd"
     id="path1" />
  <path
     d="m 123.0574,67.5149 c -5.6243,12.9412 40.2214,40.6955 8.2762,51.3854 7.5545,-14.8076 -26.8658,-32.811 -8.2762,-51.3854 z"
     style="fill:#9e090e;fill-rule:evenodd"
     id="path2" />
  <path
     d="m 178.4321,50.0935 c 10.8909,9.7321 17.7488,23.8852 17.7488,39.6363 0,29.3439 -23.7969,53.1409 -53.1409,53.1409 -29.3439,0 -53.1409,-23.797 -53.1409,-53.1409 0,-15.6517 6.768,-29.7269 17.5393,-39.4533 l 3e-4,3e-4 c 0.3923,-0.4447 1.0709,-0.4872 1.5156,-0.0948 l 3e-4,-3e-4 v 3e-4 l 11.7411,11.0652 c 0.362,0.3949 0.3824,1.0128 0.0261,1.4297 l 3e-4,3e-4 c -7.7886,6.4336 -12.7551,16.164 -12.7551,27.0526 0,19.3669 15.7061,35.073 35.073,35.073 19.367,0 35.073,-15.7061 35.073,-35.073 0,-7.8273 -2.5663,-15.0547 -6.9019,-20.8913 l -0.0468,-0.0628 -0.1811,-0.2405 -0.1543,-0.2017 -0.1025,-0.1327 -0.005,-0.0069 -0.1165,-0.1477 -0.2067,-0.2603 -0.198,-0.2441 -0.0984,-0.1195 -0.1958,-0.2355 -0.135,-0.1597 -0.1226,-0.1426 -0.226,-0.2609 -0.0204,-0.0234 -0.1241,-0.1408 -0.004,-0.0039 -0.1864,-0.2082 -0.1775,-0.1958 -0.091,-0.0986 -0.1653,-0.1775 -0.1945,-0.2065 -0.2303,-0.2402 -0.1178,-0.1206 -0.211,-0.2146 -0.1098,-0.1093 -0.1973,-0.1948 -0.089,-0.0874 -0.008,-0.0082 c -0.1086,-0.1057 -0.2179,-0.2113 -0.328,-0.3155 l -0.0506,-0.0476 c -0.222,-0.2092 -0.4465,-0.4162 -0.6736,-0.6198 l -0.0201,-0.0178 c -0.2296,-0.2055 -0.4619,-0.4084 -0.6971,-0.608 l -0.075,-0.0633 -0.2258,-0.1889 -0.0677,-0.0562 c -0.3559,-0.417 -0.3356,-1.0346 0.0265,-1.4295 L 177.1255,50.182 v -3e-4 l 2e-4,3e-4 c 0.3735,-0.3296 0.911,-0.3532 1.3064,-0.0885 z"
     style="fill:#231f20;fill-rule:evenodd"
     id="path3" />
  <path
     d="m 1.4172,143.9939 v 1.3574 c 0,2.2294 2.6566,4.9775 4.8306,4.9775 h 1.3586 c 3.0652,0 5.2835,-2.7315 5.2835,-5.8825 v -0.7541 c 0,-2.2699 -3.018,-4.8267 -5.7363,-4.8267 -2.883,0 -5.7364,2.3952 -5.7364,5.1284 z"
     style="fill:#9e090e;fill-rule:evenodd"
     id="path4" />
  <path
     d="m 135.9366,165.5959 v 20.8279 c 0,0.4877 0.781,1.072 1.3795,1.072 h 6.8973 c 2.2401,0 1.3795,-6.01 1.3795,-8.2699 0,-3.267 0.006,-6.5346 -2e-4,-9.8015 -0.006,-3.3272 0.8727,-5.4089 3.0137,-6.6371 3.1603,-1.8129 4.8852,-0.5606 8.3287,-0.5606 1.6516,0 2.4524,-5.0789 2.4524,-6.7385 v -0.4595 c 0,-1.6503 -7.1737,-1.8377 -9.3497,-1.8377 -4.2311,0 -7.4637,1.4469 -9.8333,3.3455 -2.0398,1.6344 -4.2679,5.4531 -4.2679,9.0594 z"
     style="fill:#9e090e;fill-rule:evenodd"
     id="path5" />
  <path
     d="m 110.9198,162.9566 h 2.4089 c 2.1296,0 5.5604,2.4327 5.7212,4.3625 h -14.1525 c 0.467,-2.0027 3.5676,-4.3625 6.0224,-4.3625 z M 94.81,169.8765 v 0.9026 c 0,5.9826 1.3263,9.0143 3.9771,12.4234 1.8763,2.413 7.0228,5.3277 11.2293,5.3277 h 3.0111 c 3.1541,0 5.4859,-0.7773 7.6302,-1.8535 1.106,-0.5551 5.1673,-3.3066 5.1673,-4.4647 v -0.1504 c 0,-0.8871 -5.6651,-4.3626 -6.7751,-4.3626 -1.0887,0 -2.9929,1.9557 -5.8718,1.9557 h -2.5595 c -3.2682,0 -6.1729,-3.4327 -6.1729,-6.92 h 23.4871 c 0.5879,0 1.355,-0.574 1.355,-1.053 v -2.4069 c 0,-8.5781 -7.4919,-15.4947 -16.2603,-15.4947 h -1.6561 c -9.2913,0 -16.5614,6.9228 -16.5614,16.0964 z"
     style="fill:#9e090e;fill-rule:evenodd"
     id="path6" />
  <path
     d="m 19.4976,168.8959 v 17.4139 c 0,0.3633 0.6881,1.0508 1.0517,1.0508 h 7.0614 c 2.0981,0 1.3522,-4.5381 1.3522,-6.6052 0,-2.6521 0,-5.3042 0,-7.9563 0,-5.4519 0.5896,-10.058 6.0098,-10.058 h 0.9015 c 5.6609,0 6.6107,3.9574 6.6107,9.6076 0,2.7021 0,5.4043 0,8.1065 0,2.0928 -0.7553,6.9054 1.3522,6.9054 h 6.761 c 0.7426,0 1.3522,-0.609 1.3522,-1.351 v -16.8134 c 0,-8.7287 -6.461,-15.6124 -15.0244,-15.6124 h -2.5542 c -8.2788,0 -14.8741,6.8668 -14.8741,15.3121 z"
     style="fill:#9e090e;fill-rule:evenodd"
     id="path7" />
  <path
     d="m 57.6015,169.981 v 1.5043 c 0,9.5731 6.5462,16.8485 15.9592,16.8485 h 2.4089 c 3.5837,0 6.7993,-1.1754 9.0049,-2.5859 1.3773,-0.8807 5.2981,-4.4839 5.2981,-6.2896 v -0.3009 c 0,-1.1932 -2.566,-1.8653 -3.4858,-2.2335 -0.9329,-0.3735 -3.3773,-1.6457 -4.2209,-1.4117 -1.7736,0.4919 -2.0896,3.7956 -7.8008,3.7956 -4.3683,0 -7.6784,-3.1854 -7.6784,-7.5216 v -1.2035 c 0,-4.1503 2.9003,-7.8225 6.7751,-7.8225 h 1.6561 c 4.8093,0 5.8609,4.0617 7.3774,4.0617 h 0.3011 c 0.5592,0 3.4093,-1.1223 4.0963,-1.3227 1.2136,-0.354 3.4316,-0.7509 3.4316,-2.1373 0,-1.972 -3.9636,-5.9653 -5.4181,-6.9219 -2.3165,-1.5234 -5.7878,-2.8562 -9.6377,-2.8562 h -1.9573 c -9.0924,0 -16.1097,7.1991 -16.1097,16.3972 z"
     style="fill:#9e090e;fill-rule:evenodd"
     id="path8" />
  <path
     d="m 1.8628,155.6855 v 29.9501 c 0,0.9439 0.4332,1.6639 1.3625,1.6639 h 6.8125 c 0.823,0 1.5139,-0.6979 1.5139,-1.5127 v -30.2525 c 0,-0.6065 -0.9366,-1.3614 -1.6653,-1.3614 H 3.3767 c -0.7611,0 -1.5139,0.7521 -1.5139,1.5126 z"
     style="fill:#9e090e;fill-rule:evenodd"
     id="path9" />
  <path
     d="m 161.456,166.676 v 19.7561 c 0,0.4839 0.775,1.0637 1.3688,1.0637 h 6.8444 c 2.1239,0 1.3688,-4.594 1.3688,-6.6866 0,-2.6848 0,-5.3696 0,-8.0544 0,-6.0341 -0.4126,-10.334 5.7797,-10.334 5.8449,0 5.3234,4.7384 5.3234,10.4859 0,2.6342 0,5.2683 0,7.9025 0,2.0828 -0.7269,6.6866 1.3688,6.6866 h 6.9964 c 2.0825,0 1.3689,-4.4683 1.3689,-6.5347 0,-2.6341 0,-5.2683 0,-7.9024 0,-5.766 -0.6941,-10.6379 5.3234,-10.6379 6.2428,0 5.7796,4.4226 5.7796,10.4859 0,2.6848 0,5.3696 0,8.0544 0,2.6318 -0.8122,6.5347 1.6731,6.5347 h 6.8443 c 0.368,0 1.0647,-0.696 1.0647,-1.0637 v -18.2364 c 0,-4.8153 -1.1687,-8.2595 -3.6118,-10.6765 -2.1366,-2.1138 -5.9334,-4.2166 -10.0769,-4.2166 h -1.8251 c -2.6994,0 -4.1571,0.6999 -5.9848,1.6187 -2.3594,1.186 -2.7169,2.7217 -4.0536,3.7002 -1.2305,-0.9008 -1.6274,-2.2113 -3.7938,-3.5038 -1.2389,-0.7391 -3.6883,-1.8151 -5.6361,-1.8151 h -1.3689 c -8.4522,0 -14.7533,5.1085 -14.7533,13.3734 z"
     style="fill:#231f20;fill-rule:evenodd"
     id="path10" />
  <path
     d="m 265.5595,141.8026 v 12.7212 h -8.3879 c -0.7531,0 -1.4979,0.7441 -1.4979,1.4966 v 6.2857 c 0,0.9364 0.8306,1.4966 1.7974,1.4966 h 8.0884 v 21.8505 c 0,0.7202 0.4108,1.6463 1.0485,1.6463 h 7.3395 c 0.4769,0 1.0485,-0.7626 1.0485,-1.347 v -22.2994 h 8.8373 c 0.6376,0 1.0485,-0.9261 1.0485,-1.6463 v -5.6871 c 0,-0.7202 -0.4109,-1.6463 -1.0485,-1.6463 h -8.8373 v -12.4218 c 0,-1.0117 -0.5358,-1.6463 -1.4979,-1.6463 h -6.4407 c -0.629,0 -1.4979,0.6635 -1.4979,1.1973 z"
     style="fill:#231f20;fill-rule:evenodd"
     id="path11" />
  <path
     d="m 227.6507,166.7374 c 0.4711,-2.0206 3.5994,-4.4015 6.076,-4.4015 h 2.4304 c 2.1486,0 5.61,2.4545 5.7722,4.4015 z m -10.1773,2.5801 v 1.2142 c 0,10.1724 6.2648,17.6058 16.2533,17.6058 h 2.1266 c 3.1821,0 5.5347,-0.7842 7.6981,-1.8701 1.1158,-0.56 5.2133,-3.336 5.2133,-4.5044 0,-1.0894 -5.6076,-4.5532 -6.8354,-4.5532 -1.0985,0 -3.0196,1.973 -5.9241,1.973 h -1.6709 c -4.1123,0 -7.1393,-2.9497 -7.1393,-6.9816 h 23.6963 c 0.5931,0 1.3671,-0.5791 1.3671,-1.0624 v -2.4284 c 0,-4.3893 -2.6209,-8.9656 -4.8948,-11.1972 -2.3479,-2.3042 -7.0152,-4.4355 -11.6622,-4.4355 h -1.8228 c -9.1172,0 -16.4052,7.1632 -16.4052,16.2398 z"
     style="fill:#231f20;fill-rule:evenodd"
     id="path12" />
</svg>
